<svg width="95" height="45" viewBox="0 0 95 45" fill="none" xmlns="http://www.w3.org/2000/svg">
<path d="M0.35 44V36.7H9.1V44H0.35Z" fill="#21E18C"/>
<path d="M12.3258 44V1.05H25.4258L29.0258 27.25L32.6258 1.05H45.8258V44H37.9758V13.05L33.0258 44H25.3258L20.0758 13.05V44H12.3258ZM59.8805 44.4C56.4138 44.4 53.7805 43.35 51.9805 41.25C50.1805 39.1167 49.2805 36.1333 49.2805 32.3V11.85C49.2805 8.15 50.1805 5.36667 51.9805 3.5C53.7805 1.6 56.4138 0.649998 59.8805 0.649998C63.3471 0.649998 65.9805 1.6 67.7805 3.5C69.5805 5.36667 70.4805 8.15 70.4805 11.85V32.3C70.4805 36.1667 69.5805 39.15 67.7805 41.25C65.9805 43.35 63.3471 44.4 59.8805 44.4ZM59.8805 36.5C60.6471 36.5 61.1638 36.1667 61.4305 35.5C61.6971 34.8333 61.8305 33.9 61.8305 32.7V11.7C61.8305 10.7667 61.6971 10.0167 61.4305 9.45C61.1971 8.85 60.6971 8.55 59.9305 8.55C58.4971 8.55 57.7805 9.63333 57.7805 11.8V32.75C57.7805 33.9833 57.9305 34.9167 58.2305 35.55C58.5305 36.1833 59.0805 36.5 59.8805 36.5ZM77.8969 44L72.5969 0.999999H80.7969L83.9469 30.25L86.7469 0.999999H94.9469L89.6469 44H77.8969Z" fill="white"/>
</svg>
